<svg width="21" height="21" viewBox="0 0 21 21" fill="none" xmlns="http://www.w3.org/2000/svg">
<path fill-rule="evenodd" clip-rule="evenodd" d="M10.5252 0.694244C11.8399 0.694244 13.077 0.94115 14.2367 1.43497C15.3964 1.92879 16.4072 2.60469 17.2692 3.4627C18.1312 4.32071 18.8102 5.32685 19.3064 6.48115C19.8025 7.63545 20.0505 8.86689 20.0505 10.1755C20.0505 11.4841 19.8025 12.7156 19.3064 13.8699C18.8102 15.0242 18.1312 16.0303 17.2692 16.8883C16.4072 17.7463 15.3964 18.4222 14.2367 18.916C13.077 19.4099 11.8399 19.6568 10.5252 19.6568C9.21045 19.6568 7.97328 19.4099 6.81361 18.916C5.65394 18.4222 4.64312 17.7463 3.78112 16.8883C2.91912 16.0303 2.24007 15.0242 1.74396 13.8699C1.24784 12.7156 0.999786 11.4841 0.999786 10.1755C0.999786 8.86689 1.24784 7.63545 1.74396 6.48115C2.24007 5.32685 2.91912 4.32071 3.78112 3.4627C4.64312 2.60469 5.65394 1.92879 6.81361 1.43497C7.97328 0.94115 9.21045 0.694244 10.5252 0.694244ZM10.5247 18.4901C11.6782 18.4901 12.7604 18.271 13.7712 17.8327C14.782 17.3945 15.6626 16.7988 16.413 16.0457C17.1634 15.2927 17.7587 14.4131 18.199 13.4069C18.6393 12.4008 18.8594 11.3236 18.8594 10.1755C18.8594 9.02737 18.6393 7.95025 18.199 6.94409C17.7587 5.93794 17.1634 5.06142 16.413 4.31452C15.6626 3.56762 14.782 2.97505 13.7712 2.53679C12.7604 2.09852 11.6782 1.87939 10.5247 1.87939C9.37128 1.87939 8.28915 2.09852 7.27831 2.53679C6.26747 2.97505 5.38688 3.56762 4.63651 4.31452C3.88613 5.06142 3.2908 5.93794 2.8505 6.94409C2.4102 7.95025 2.19005 9.02737 2.19005 10.1755C2.19005 11.3236 2.4102 12.4008 2.8505 13.4069C3.2908 14.4131 3.88613 15.2927 4.63651 16.0457C5.38688 16.7988 6.26747 17.3945 7.27831 17.8327C8.28915 18.271 9.37128 18.4901 10.5247 18.4901ZM11.326 6.41634C11.1647 6.41634 11.0221 6.47806 10.8981 6.60152C10.7865 6.71263 10.7306 6.85151 10.7306 7.01817C10.7306 7.18484 10.7865 7.32372 10.8981 7.43483L13.0562 9.58293H6.35865C6.18501 9.58293 6.04238 9.63848 5.93075 9.74959C5.81912 9.8607 5.76331 10.0027 5.76331 10.1755C5.76331 10.336 5.81912 10.4749 5.93075 10.5922C6.04238 10.7094 6.18501 10.7681 6.35865 10.7681H13.0934L10.8981 12.9347C10.7865 13.0582 10.7306 13.2001 10.7306 13.3606C10.7306 13.5211 10.7865 13.6631 10.8981 13.7865C10.9601 13.8359 11.0283 13.876 11.1027 13.9069C11.1771 13.9378 11.2516 13.9532 11.326 13.9532C11.4004 13.9532 11.4748 13.9378 11.5492 13.9069C11.6236 13.876 11.6919 13.8359 11.7539 13.7865L15.2701 10.194L11.7539 6.60152C11.6298 6.47806 11.4872 6.41634 11.326 6.41634Z" fill="white"/>
<path d="M14.2367 1.43497L14.0408 1.895V1.895L14.2367 1.43497ZM17.2692 3.4627L17.6219 3.10833V3.10833L17.2692 3.4627ZM19.3064 6.48115L18.847 6.67858V6.67858L19.3064 6.48115ZM19.3064 13.8699L18.847 13.6724L19.3064 13.8699ZM17.2692 16.8883L17.6219 17.2427V17.2427L17.2692 16.8883ZM6.81361 18.916L6.61772 19.3761L6.81361 18.916ZM3.78112 16.8883L4.13385 16.5339H4.13385L3.78112 16.8883ZM1.74396 13.8699L1.28459 14.0673H1.28459L1.74396 13.8699ZM1.74396 6.48115L1.28459 6.28371H1.28459L1.74396 6.48115ZM3.78112 3.4627L3.42839 3.10833L3.78112 3.4627ZM6.81361 1.43497L6.61772 0.974939V0.97494L6.81361 1.43497ZM13.7712 17.8327L13.9701 18.2915H13.9701L13.7712 17.8327ZM16.413 16.0457L16.7672 16.3987L16.7672 16.3987L16.413 16.0457ZM18.199 13.4069L18.6571 13.6074L18.6571 13.6074L18.199 13.4069ZM18.199 6.94409L18.6571 6.74364L18.6571 6.74364L18.199 6.94409ZM16.413 4.31452L16.7657 3.96015V3.96015L16.413 4.31452ZM13.7712 2.53679L13.9701 2.07805V2.07805L13.7712 2.53679ZM7.27831 2.53679L7.07942 2.07805V2.07805L7.27831 2.53679ZM4.63651 4.31452L4.28378 3.96015L4.63651 4.31452ZM2.8505 6.94409L3.30856 7.14454L2.8505 6.94409ZM2.8505 13.4069L3.30856 13.2065V13.2065L2.8505 13.4069ZM4.63651 16.0457L4.28232 16.3987H4.28232L4.63651 16.0457ZM7.27831 17.8327L7.07942 18.2915H7.07942L7.27831 17.8327ZM10.8981 6.60152L10.5453 6.24714V6.24714L10.8981 6.60152ZM10.8981 7.43483L10.5453 7.7892L10.5453 7.7892L10.8981 7.43483ZM13.0562 9.58293V10.0829H14.2672L13.4089 9.22856L13.0562 9.58293ZM5.93075 9.74959L5.57802 9.39522L5.57802 9.39522L5.93075 9.74959ZM5.93075 10.5922L5.56857 10.9369L5.56857 10.9369L5.93075 10.5922ZM13.0934 10.7681L13.4446 11.124L14.3118 10.2681H13.0934V10.7681ZM10.8981 12.9347L10.5469 12.5788L10.5367 12.5888L10.5272 12.5994L10.8981 12.9347ZM10.8981 13.7865L10.5272 14.1219L10.5546 14.1522L10.5866 14.1777L10.8981 13.7865ZM11.1027 13.9069L10.9112 14.3688L10.9112 14.3688L11.1027 13.9069ZM11.7539 13.7865L12.0653 14.1777L12.0896 14.1584L12.1112 14.1363L11.7539 13.7865ZM15.2701 10.194L15.6274 10.5438L15.9697 10.194L15.6274 9.84429L15.2701 10.194ZM11.7539 6.60152L12.1112 6.25175L12.1066 6.24714L11.7539 6.60152ZM14.4326 0.97494C13.2083 0.453611 11.9042 0.194244 10.5252 0.194244V1.19424C11.7755 1.19424 12.9457 1.42869 14.0408 1.895L14.4326 0.97494ZM17.6219 3.10833C16.7132 2.20381 15.6486 1.49276 14.4326 0.97494L14.0408 1.895C15.1441 2.36482 16.1012 3.00557 16.9165 3.81707L17.6219 3.10833ZM19.7657 6.28371C19.2453 5.07275 18.5307 4.01285 17.6219 3.10833L16.9165 3.81707C17.7317 4.62856 18.3752 5.58095 18.847 6.67858L19.7657 6.28371ZM20.5505 10.1755C20.5505 8.80188 20.2898 7.50298 19.7657 6.28371L18.847 6.67858C19.3152 7.76792 19.5505 8.9319 19.5505 10.1755H20.5505ZM19.7657 14.0673C20.2898 12.848 20.5505 11.5491 20.5505 10.1755H19.5505C19.5505 11.4191 19.3152 12.5831 18.847 13.6724L19.7657 14.0673ZM17.6219 17.2427C18.5307 16.3382 19.2453 15.2783 19.7657 14.0673L18.847 13.6724C18.3752 14.7701 17.7317 15.7225 16.9165 16.5339L17.6219 17.2427ZM14.4326 19.3761C15.6486 18.8583 16.7132 18.1472 17.6219 17.2427L16.9165 16.5339C16.1012 17.3454 15.1441 17.9862 14.0408 18.456L14.4326 19.3761ZM10.5252 20.1568C11.9042 20.1568 13.2083 19.8974 14.4326 19.3761L14.0408 18.456C12.9457 18.9223 11.7755 19.1568 10.5252 19.1568V20.1568ZM6.61772 19.3761C7.84199 19.8974 9.14608 20.1568 10.5252 20.1568V19.1568C9.27482 19.1568 8.10457 18.9223 7.0095 18.456L6.61772 19.3761ZM3.42839 17.2427C4.33711 18.1472 5.40169 18.8583 6.61772 19.3761L7.0095 18.456C5.90619 17.9862 4.94913 17.3454 4.13385 16.5339L3.42839 17.2427ZM1.28459 14.0673C1.80506 15.2783 2.51965 16.3382 3.42839 17.2427L4.13385 16.5339C3.31859 15.7225 2.67509 14.7701 2.20332 13.6724L1.28459 14.0673ZM0.499786 10.1755C0.499786 11.5491 0.760551 12.848 1.28459 14.0673L2.20332 13.6724C1.73513 12.5831 1.49979 11.4191 1.49979 10.1755H0.499786ZM1.28459 6.28371C0.760551 7.50298 0.499786 8.80188 0.499786 10.1755H1.49979C1.49979 8.9319 1.73513 7.76792 2.20332 6.67858L1.28459 6.28371ZM3.42839 3.10833C2.51965 4.01285 1.80506 5.07275 1.28459 6.28371L2.20332 6.67858C2.67509 5.58095 3.31859 4.62856 4.13385 3.81707L3.42839 3.10833ZM6.61772 0.97494C5.40169 1.49276 4.33711 2.20381 3.42839 3.10833L4.13385 3.81707C4.94913 3.00557 5.90619 2.36482 7.0095 1.895L6.61772 0.97494ZM10.5252 0.194244C9.14608 0.194244 7.84199 0.453611 6.61772 0.974939L7.0095 1.895C8.10457 1.42869 9.27481 1.19424 10.5252 1.19424V0.194244ZM13.5723 17.374C12.6272 17.7838 11.6131 17.9901 10.5247 17.9901V18.9901C11.7434 18.9901 12.8935 18.7582 13.9701 18.2915L13.5723 17.374ZM16.0588 15.6928C15.3547 16.3995 14.5273 16.9599 13.5723 17.374L13.9701 18.2915C15.0368 17.829 15.9706 17.1981 16.7672 16.3987L16.0588 15.6928ZM17.7409 13.2065C17.3247 14.1577 16.7639 14.9851 16.0588 15.6928L16.7672 16.3987C17.5628 15.6002 18.1927 14.6684 18.6571 13.6074L17.7409 13.2065ZM18.3594 10.1755C18.3594 11.2578 18.1523 12.2664 17.7409 13.2065L18.6571 13.6074C19.1263 12.5351 19.3594 11.3894 19.3594 10.1755H18.3594ZM17.7409 7.14454C18.1523 8.08463 18.3594 9.09317 18.3594 10.1755H19.3594C19.3594 8.96157 19.1263 7.81587 18.6571 6.74364L17.7409 7.14454ZM16.0603 4.6689C16.7645 5.3699 17.3248 6.19366 17.7409 7.14454L18.6571 6.74364C18.1926 5.68221 17.5622 4.75295 16.7657 3.96015L16.0603 4.6689ZM13.5723 2.99553C14.5281 3.40995 15.356 3.96788 16.0603 4.6689L16.7657 3.96015C15.9692 3.16737 15.0359 2.54015 13.9701 2.07805L13.5723 2.99553ZM10.5247 2.37939C11.6131 2.37939 12.6272 2.58575 13.5723 2.99553L13.9701 2.07805C12.8935 1.61129 11.7434 1.37939 10.5247 1.37939V2.37939ZM7.4772 2.99553C8.42233 2.58575 9.43643 2.37939 10.5247 2.37939V1.37939C9.30613 1.37939 8.15597 1.61129 7.07942 2.07805L7.4772 2.99553ZM4.98924 4.6689C5.69352 3.96788 6.52135 3.40995 7.4772 2.99553L7.07942 2.07805C6.0136 2.54015 5.08025 3.16737 4.28378 3.96015L4.98924 4.6689ZM3.30856 7.14454C3.72468 6.19366 4.28498 5.3699 4.98924 4.6689L4.28378 3.96015C3.48729 4.75295 2.85693 5.68221 2.39244 6.74364L3.30856 7.14454ZM2.69005 10.1755C2.69005 9.09317 2.89717 8.08463 3.30856 7.14454L2.39244 6.74364C1.92322 7.81587 1.69005 8.96157 1.69005 10.1755H2.69005ZM3.30856 13.2065C2.89717 12.2664 2.69005 11.2578 2.69005 10.1755H1.69005C1.69005 11.3894 1.92322 12.5351 2.39244 13.6074L3.30856 13.2065ZM4.9907 15.6928C4.28555 14.9851 3.72483 14.1577 3.30856 13.2065L2.39244 13.6074C2.85677 14.6684 3.48671 15.6002 4.28232 16.3987L4.9907 15.6928ZM7.4772 17.374C6.52221 16.9599 5.69484 16.3995 4.9907 15.6928L4.28232 16.3987C5.07893 17.1981 6.01274 17.829 7.07942 18.2915L7.4772 17.374ZM10.5247 17.9901C9.43643 17.9901 8.42233 17.7838 7.4772 17.374L7.07942 18.2915C8.15597 18.7582 9.30613 18.9901 10.5247 18.9901V17.9901ZM11.2508 6.95589C11.29 6.91693 11.3089 6.91634 11.326 6.91634V5.91634C11.0206 5.91634 10.7543 6.03919 10.5453 6.24714L11.2508 6.95589ZM11.2306 7.01817C11.2306 6.99148 11.2349 6.97926 11.2364 6.97545C11.2377 6.97221 11.2405 6.96613 11.2508 6.95589L10.5453 6.24714C10.3335 6.45799 10.2306 6.7271 10.2306 7.01817H11.2306ZM11.2508 7.08046C11.2405 7.07021 11.2377 7.06413 11.2364 7.0609C11.2349 7.05709 11.2306 7.04487 11.2306 7.01817H10.2306C10.2306 7.30925 10.3335 7.57836 10.5453 7.7892L11.2508 7.08046ZM13.4089 9.22856L11.2508 7.08046L10.5453 7.7892L12.7034 9.9373L13.4089 9.22856ZM6.35865 10.0829H13.0562V9.08293H6.35865V10.0829ZM6.28348 10.104C6.29137 10.0961 6.30235 10.0829 6.35865 10.0829V9.08293C6.06767 9.08293 5.79338 9.18085 5.57802 9.39522L6.28348 10.104ZM6.26331 10.1755C6.26331 10.1214 6.27577 10.1116 6.28348 10.104L5.57802 9.39522C5.36248 9.60976 5.26331 9.88391 5.26331 10.1755H6.26331ZM6.29293 10.2475C6.2689 10.2222 6.26331 10.2064 6.26331 10.1755H5.26331C5.26331 10.4656 5.36934 10.7276 5.56857 10.9369L6.29293 10.2475ZM6.35865 10.2681C6.32886 10.2681 6.31543 10.2633 6.31157 10.2617C6.30847 10.2604 6.30277 10.2578 6.29293 10.2475L5.56857 10.9369C5.78194 11.1611 6.05917 11.2681 6.35865 11.2681V10.2681ZM13.0934 10.2681H6.35865V11.2681H13.0934V10.2681ZM11.2493 13.2906L13.4446 11.124L12.7422 10.4122L10.5469 12.5788L11.2493 13.2906ZM11.2306 13.3606C11.2306 13.329 11.2371 13.3053 11.269 13.27L10.5272 12.5994C10.3359 12.811 10.2306 13.0713 10.2306 13.3606H11.2306ZM11.269 13.4512C11.2371 13.4159 11.2306 13.3922 11.2306 13.3606H10.2306C10.2306 13.65 10.3359 13.9102 10.5272 14.1219L11.269 13.4512ZM11.2943 13.445C11.2622 13.4318 11.2345 13.4153 11.2095 13.3954L10.5866 14.1777C10.6857 14.2566 10.7944 14.3203 10.9112 14.3688L11.2943 13.445ZM11.326 13.4532C11.3226 13.4532 11.313 13.4528 11.2943 13.445L10.9112 14.3688C11.0413 14.4227 11.1806 14.4532 11.326 14.4532V13.4532ZM11.3577 13.445C11.3389 13.4528 11.3294 13.4532 11.326 13.4532V14.4532C11.4714 14.4532 11.6107 14.4227 11.7408 14.3688L11.3577 13.445ZM11.4424 13.3954C11.4175 13.4153 11.3897 13.4318 11.3577 13.445L11.7408 14.3688C11.8576 14.3203 11.9662 14.2566 12.0653 14.1777L11.4424 13.3954ZM14.9127 9.84429L11.3965 13.4368L12.1112 14.1363L15.6274 10.5438L14.9127 9.84429ZM11.3965 6.95125L14.9127 10.5438L15.6274 9.84429L12.1112 6.25178L11.3965 6.95125ZM11.326 6.91634C11.3431 6.91634 11.362 6.91693 11.4011 6.95589L12.1066 6.24714C11.8977 6.0392 11.6314 5.91634 11.326 5.91634V6.91634Z" fill="white"/>
</svg>
