<svg width="22" height="18" viewBox="0 0 22 18" fill="none" xmlns="http://www.w3.org/2000/svg">
<path fill-rule="evenodd" clip-rule="evenodd" d="M20.1667 0C21.175 0 22 0.84375 22 1.875V16.125C22 17.1562 21.175 18 20.1667 18H1.83333C0.825 18 0 17.1562 0 16.125V1.875C0 0.84375 0.825 0 1.83333 0H20.1667ZM1.38462 1C1.18029 1 1 1.17578 1 1.375V4H21V1.375C21 1.17578 20.8197 1 20.6154 1H1.38462ZM21 16.65C21 16.8359 20.8197 17 20.6154 17H1.38462C1.18029 17 1 16.8359 1 16.65V10H21V16.65ZM2 15V14H5V15H2ZM6 14V15H10V14H6Z" fill="black"/>
</svg>
