<svg width="15" height="15" viewBox="0 0 15 15" fill="none" xmlns="http://www.w3.org/2000/svg">
<path fill-rule="evenodd" clip-rule="evenodd" d="M7.5 15C11.6406 15 15 11.6406 15 7.5C15 3.35938 11.6406 0 7.5 0C3.35938 0 0 3.35938 0 7.5C0 11.6406 3.35938 15 7.5 15ZM11.25 5.625C11.25 3.83789 9.375 2.5 7.69531 2.5C6.10352 2.5 4.91211 3.18359 4.07227 4.58008C3.98438 4.7168 4.02344 4.89258 4.15039 4.99023L5.43945 5.9668C5.48828 6.00586 5.55664 6.02539 5.625 6.02539C5.71289 6.02539 5.81055 5.98633 5.86914 5.9082C6.32812 5.32227 6.52344 5.14648 6.70898 5.00977C6.875 4.89258 7.19727 4.77539 7.54883 4.77539C8.17383 4.77539 8.75 5.17578 8.75 5.60547C8.75 6.11328 8.48633 6.36719 7.89062 6.64062C7.19727 6.95312 6.25 7.76367 6.25 8.71094V9.0625C6.25 9.23828 6.38672 9.375 6.5625 9.375H8.4375C8.61328 9.375 8.75 9.23828 8.75 9.0625C8.75 8.83789 9.0332 8.35938 9.49219 8.0957L9.50439 8.0888C10.2455 7.66956 11.25 7.10126 11.25 5.625ZM8.75 12.1875V10.3125C8.75 10.1367 8.61328 10 8.4375 10H6.5625C6.38672 10 6.25 10.1367 6.25 10.3125V12.1875C6.25 12.3633 6.38672 12.5 6.5625 12.5H8.4375C8.61328 12.5 8.75 12.3633 8.75 12.1875Z" fill="black"/>
</svg>
